<svg xmlns="http://www.w3.org/2000/svg" viewBox="0 0 522.43 522.43"><defs><style>.cls-1,.cls-3{fill:none;}.cls-1,.cls-2{fill-rule:evenodd;}.cls-2{fill:#d12229;}.cls-3{stroke:#d12229;stroke-miterlimit:10;stroke-width:40px;}</style></defs><title>ram-round</title><g id="Layer_2" data-name="Layer 2"><g id="Layer_1-2" data-name="Layer 1"><path class="cls-1" d="M311.75,372.33c0-2.6-.06-5.2,0-7.8.2-7,2.47-13.23,6.11-19.24,3.36-5.55,7.88-6.87,13.75-5.74a47.93,47.93,0,0,0,13.89,1c7.43-.76,14.87-1.46,22.25-2.53,27.21-3.94,49.24-17.18,66.76-38.06,8.77-10.46,13.91-22.95,17.93-35.82,4.78-15.29,7.56-31.05,6.52-47.06-1.11-17.15-6.4-33.4-14.07-48.72C429.69,137.89,406.22,116,375,102.4c-18.22-7.94-37.15-12.26-57.12-11.83-8.45.18-16.9.1-25.33.78-11.15.9-22.23,2.51-32.67,6.68-25.77,10.31-47.33,26.08-62.9,49.43-2.74,4.1-3.47,4.18-7.45,1.38a89.11,89.11,0,0,0-52.7-16.65c-28.27.05-52.55,16.15-63.34,42.32-10.13,24.55-12.13,50.16-8.78,76.24,3.09,24.07,13.34,45.37,26.84,65.19,2.5,3.68,3,6.72,1.33,10.79a44.09,44.09,0,0,0-1.77,29.59c4.59,15.55,20.16,26,38.26,26.58,10.37.32,19.29-3.15,27.65-8.81,3.63-2.46,4.74-2.06,5.91,2.18,7.17,25.89,20.66,48.2,38,68.5,12,14.1,26.66,20.31,45.21,17.67,12.56-1.79,25.05-3.92,37.38-6.75,16.49-3.78,26.62-14.35,29.63-31.16,1.34-7.5.68-15.13.25-22.7C312.85,392,311.57,382.21,311.75,372.33Z"/><path class="cls-2" d="M311.75,372.33c-.19,9.87,1.09,19.66,1.65,29.49.43,7.56,1.08,15.2-.25,22.7-3,16.81-13.13,27.37-29.63,31.16-12.33,2.83-24.82,5-37.38,6.75-18.56,2.64-33.18-3.56-45.21-17.67-17.33-20.3-30.81-42.61-38-68.5-1.17-4.24-2.28-4.64-5.91-2.18-8.37,5.66-17.29,9.14-27.65,8.81-18.11-.57-33.67-11-38.26-26.58a44.09,44.09,0,0,1,1.77-29.59c1.64-4.06,1.17-7.11-1.33-10.79-13.5-19.82-23.75-41.12-26.84-65.19-3.35-26.08-1.35-51.69,8.78-76.24,10.8-26.17,35.07-42.27,63.34-42.32a89.11,89.11,0,0,1,52.7,16.65c4,2.8,4.71,2.73,7.45-1.38,15.57-23.35,37.13-39.12,62.9-49.43,10.44-4.18,21.52-5.78,32.67-6.68,8.43-.68,16.88-.59,25.33-.78,20-.43,38.9,3.89,57.12,11.83,31.22,13.6,54.69,35.49,69.92,65.94,7.66,15.32,13,31.58,14.07,48.72,1,16-1.74,31.76-6.52,47.06-4,12.88-9.16,25.37-17.93,35.82C417,320.82,395,334.07,367.78,338c-7.39,1.07-14.83,1.77-22.25,2.53a47.93,47.93,0,0,1-13.89-1c-5.87-1.12-10.39.19-13.75,5.74-3.64,6-5.91,12.25-6.11,19.24C311.69,367.13,311.75,369.73,311.75,372.33ZM284.28,290c0,.74.5.79.88.95a127.22,127.22,0,0,0,45,10.28,95.09,95.09,0,0,0,51.49-12.13c26.25-14.76,40.89-36.59,40.16-67.33a152.18,152.18,0,0,0-5.56-36.19c-6.43-23.76-21.13-40.28-43.21-50.61a169.48,169.48,0,0,0-36.59-12.22c-5.94-1.27-12-2.45-18-2.26a176.37,176.37,0,0,0-30.58,3.73c-9.54,2-19.15,3.95-27.91,8.43-23.57,12.06-38.13,31.72-47,56.15-5.11,14.06-7.66,28.65-9.07,43.44-.76,7.94-2.51,15.92-.58,23.9.81,3.36-.39,5.63-2.82,7.66a68.29,68.29,0,0,1-33.42,14.93,17.14,17.14,0,0,1-7.74-.29c-.71-.22-1.7-.28-1.85-1.1-.21-1.18,1-1.23,1.71-1.54a181.82,181.82,0,0,0,17.32-8.94c5-2.85,6.28-5.38,5.33-11.14a38.29,38.29,0,0,0-1.43-5.66c-6.21-19-15.47-36.49-26.32-53.15-6.93-10.63-16-19.1-27.81-24.18-4.63-2-9.57-1.37-14.37-1.28-3.35.06-5.63,2.46-7.49,5.15C96.26,188.42,93.67,202,92.66,215.93A132.77,132.77,0,0,0,104,280.22c1.86,4.2,4,8.2,7.57,11.2.63.52,1.19,1.53,2.18.86s.47-1.55.3-2.39c-.48-2.44-1-4.88-1.42-7.33-2.92-15.53-6.18-31-6.21-46.93a35.43,35.43,0,0,1,3.59-16.33c2.55-5.06,6.72-5.78,10.75-1.89a26.63,26.63,0,0,1,5.24,6.57q9.47,17.73,19.11,35.36c2.19,4,3.5,4.4,8,3.11,5.94-1.69,11.88-3.38,17.39-6.27.81-.42,1.73-1.19,2.61-.12a2.87,2.87,0,0,1,.39,2.78,5.62,5.62,0,0,1-2.4,3,69.56,69.56,0,0,1-12.93,7.44c-5.6,2.38-7.58,5.34-6.29,11.2,4.13,18.73,8.69,37.36,17.48,54.61a27.42,27.42,0,0,0,2.6,4.1,2.71,2.71,0,0,0,3.21.93c1.2-.42,1.48-1.44,1.56-2.6.28-4,.89-8,.69-12a31.08,31.08,0,0,1,1.13-9.32c.37-1.43.71-2.88,2.57-2.77s2.26,1.48,2.5,2.94a121.94,121.94,0,0,1,1.22,13.9c.66,13.54,2,27,5.3,40.18a110.56,110.56,0,0,0,30.18,53.31c7.24,7.13,12.39,6.39,17.25-2.21a53.62,53.62,0,0,1,4.11-5.84c3.12-4.12,7.75-5.6,11.34-3.71s6.71,8.67,5.63,12.62c-1,3.78-2.7,4.44-6.1,2.34-1.26-.78-2.62-1.76-3.38.32-.58,1.61-.29,3.31,1.62,4a8.19,8.19,0,0,0,2.88.36c3.46,0,6.93-.12,10.39-.3a66.89,66.89,0,0,0,14.41-2.24c3.22-.89,5.63-2.7,6.37-6.21,2.18-10.3,2.7-20.59-.16-30.87-1.36-4.87-3.92-6.48-8.94-5.69-5.45.85-10.33,3.13-15.06,5.83-8.77,5-18.37,2.53-23.07-6.34-11.35-21.43-23.74-42.35-32.27-65.18a20.73,20.73,0,0,1-1.74-7.88c.05-1.76.14-3.66,2.31-4.16s3.06,1.06,3.8,2.74a33.77,33.77,0,0,0,7.91,11c5.18,4.88,8.12,5,12.84-.15a107,107,0,0,0,25.59-47.92c1.21-5.13,0-6.52-5.25-7.19-9.95-1.27-19.42-4.34-28.72-8a11.39,11.39,0,0,1-6.61-6.39c-.93-2.27.3-3.67,2.67-3.13,1.9.44,3.72,1.16,5.62,1.61,11.95,2.79,23.87,1.72,35.76-.41a62.59,62.59,0,0,0,19.65-6.7c-12.49,1.85-25,2.8-37.5.94a83,83,0,0,1-20.6-5.73c-1.13-.48-2.29-.94-2.16-2.46s1.33-2.13,2.7-2.32c1-.13,1.94-.12,2.92-.17,4.13-.22,8.21.41,12.32.59,7.65.34,9.15-.82,11.27-8.13.51-1.77,1-3.56,1.51-5.31,4.94-15.56,12.31-29.67,25.35-40,16.44-13.08,34.9-18.84,55.89-14.28a89.58,89.58,0,0,1,39.89,20.22c16.12,13.91,22.28,32,18.38,52.62-4.58,24.32-19.87,39.8-43.32,47.19-12.5,3.94-25.48,3.45-38.37,3.16C299.79,290.24,292,289.7,284.28,290Zm53.06-89.92a19.85,19.85,0,0,0-11.19,2.55c-1.59.88-2.71,2-1.27,3.88,5.26,6.73,10.91,12.93,19.79,14.94,5.49,1.24,10.91,2.77,16.37,4.14,4.45,1.12,5.67,0,4.93-4.43a17.91,17.91,0,0,0-.77-2.82C361.9,208.59,349.11,199.14,337.34,200.06ZM116.72,342a15.41,15.41,0,0,0,0,1.63,5.53,5.53,0,0,0,4.08,5c2.23.7,3.36-1.09,4.41-2.57a22.22,22.22,0,0,0,3.49-8.34c1.25-5.82,2.36-11.68,4.19-17.36,1.65-5.16,3.4-10.28,5.05-15.44.24-.75.92-1.73-.18-2.3-.85-.44-1.36.38-1.86.93-4,4.41-7.89,9-10.75,14.23C121,325.34,116.73,332.94,116.72,342Zm129.23-13.53a15.38,15.38,0,0,1,10.38-1.85,27.55,27.55,0,0,0,5.19.1,6.36,6.36,0,0,0,5.67-4.23c1-2.23-.5-3.68-1.85-5.12-3.9-4.17-5.08-9-3.19-14.39.6-1.74,1.41-3.4,2-5.13a14.37,14.37,0,0,0,.8-8.47C259.8,303.27,251.18,314.49,245.95,328.46Z"/><path class="cls-1" d="M284.28,290c7.77-.28,15.51.26,23.26.44,12.89.29,25.86.77,38.37-3.16,23.45-7.39,38.73-22.87,43.32-47.19,3.9-20.65-2.27-38.71-18.38-52.62A89.58,89.58,0,0,0,331,167.23c-21-4.56-39.45,1.2-55.89,14.28-13,10.37-20.4,24.47-25.35,40-.56,1.75-1,3.54-1.51,5.31-2.13,7.31-3.63,8.46-11.27,8.13-4.11-.18-8.19-.82-12.32-.59-1,.05-2,0-2.92.17-1.37.18-2.56.71-2.7,2.32s1,2,2.16,2.46a83,83,0,0,0,20.6,5.73c12.55,1.86,25,.91,37.5-.94a62.59,62.59,0,0,1-19.65,6.7c-11.89,2.13-23.81,3.19-35.76.41-1.89-.44-3.72-1.17-5.62-1.61-2.38-.55-3.6.86-2.67,3.13a11.39,11.39,0,0,0,6.61,6.39c9.3,3.63,18.78,6.71,28.72,8,5.26.67,6.46,2.07,5.25,7.19a107,107,0,0,1-25.59,47.92c-4.72,5.19-7.66,5-12.84.15a33.77,33.77,0,0,1-7.91-11c-.74-1.68-1.63-3.24-3.8-2.74s-2.26,2.4-2.31,4.16a20.73,20.73,0,0,0,1.74,7.88c8.53,22.83,20.92,43.75,32.27,65.18,4.7,8.87,14.3,11.36,23.07,6.34,4.73-2.7,9.61-5,15.06-5.83,5-.79,7.58.82,8.94,5.69,2.86,10.28,2.34,20.56.16,30.87-.74,3.52-3.15,5.33-6.37,6.21a66.89,66.89,0,0,1-14.41,2.24c-3.46.18-6.93.25-10.39.3a8.19,8.19,0,0,1-2.88-.36c-1.91-.7-2.21-2.41-1.62-4,.75-2.08,2.11-1.1,3.38-.32,3.4,2.1,5.06,1.44,6.1-2.34,1.09-4-1.9-10.66-5.63-12.62s-8.22-.41-11.34,3.71a53.62,53.62,0,0,0-4.11,5.84c-4.86,8.6-10,9.34-17.25,2.21a110.56,110.56,0,0,1-30.18-53.31c-3.26-13.2-4.64-26.64-5.3-40.18a121.94,121.94,0,0,0-1.22-13.9c-.24-1.46-.74-2.84-2.5-2.94s-2.2,1.34-2.57,2.77a31.08,31.08,0,0,0-1.13,9.32c.2,4-.41,8-.69,12-.08,1.16-.36,2.18-1.56,2.6a2.71,2.71,0,0,1-3.21-.93,27.42,27.42,0,0,1-2.6-4.1c-8.78-17.25-13.35-35.88-17.48-54.61-1.29-5.86.68-8.82,6.29-11.2a69.56,69.56,0,0,0,12.93-7.44,5.62,5.62,0,0,0,2.4-3,2.87,2.87,0,0,0-.39-2.78c-.88-1.06-1.8-.3-2.61.12-5.51,2.89-11.46,4.58-17.39,6.27-4.53,1.29-5.84.87-8-3.11Q135.5,241.73,126.06,224a26.63,26.63,0,0,0-5.24-6.57c-4-3.89-8.2-3.17-10.75,1.89a35.43,35.43,0,0,0-3.59,16.33c0,15.93,3.28,31.4,6.21,46.93.46,2.44.94,4.88,1.42,7.33.16.84.57,1.8-.3,2.39s-1.55-.34-2.18-.86c-3.6-3-5.71-7-7.57-11.2a132.77,132.77,0,0,1-11.39-64.29c1-14,3.6-27.5,11.79-39.35,1.86-2.69,4.14-5.09,7.49-5.15,4.8-.09,9.74-.7,14.37,1.28,11.85,5.08,20.88,13.55,27.81,24.18C165,213.54,174.23,231,180.44,250a38.29,38.29,0,0,1,1.43,5.66c.94,5.76-.35,8.29-5.33,11.14a181.82,181.82,0,0,1-17.32,8.94c-.72.31-1.93.36-1.71,1.54.15.83,1.14.89,1.85,1.1a17.14,17.14,0,0,0,7.74.29,68.29,68.29,0,0,0,33.42-14.93c2.44-2,3.64-4.29,2.82-7.66-1.93-8-.18-16,.58-23.9,1.41-14.8,4-29.38,9.07-43.44,8.88-24.43,23.44-44.09,47-56.15,8.76-4.48,18.37-6.44,27.91-8.43a176.37,176.37,0,0,1,30.58-3.73c6-.19,12.06,1,18,2.26A169.48,169.48,0,0,1,373.08,135c22.07,10.33,36.78,26.85,43.21,50.61a152.18,152.18,0,0,1,5.56,36.19c.73,30.74-13.9,52.57-40.16,67.33a95.09,95.09,0,0,1-51.49,12.13,127.22,127.22,0,0,1-45-10.28C284.78,290.77,284.3,290.71,284.28,290Z"/><path class="cls-1" d="M337.34,200.06c11.76-.92,24.56,8.54,27.87,18.26a17.91,17.91,0,0,1,.77,2.82c.74,4.45-.48,5.55-4.93,4.43-5.46-1.37-10.88-2.9-16.37-4.14-8.88-2-14.52-8.21-19.79-14.94-1.44-1.84-.31-3,1.27-3.88A19.85,19.85,0,0,1,337.34,200.06Z"/><path class="cls-1" d="M116.72,342c0-9.06,4.31-16.65,8.44-24.26,2.86-5.26,6.73-9.82,10.75-14.23.5-.55,1-1.37,1.86-.93,1.1.57.42,1.55.18,2.3-1.66,5.15-3.4,10.28-5.05,15.44-1.82,5.68-2.93,11.54-4.19,17.36a22.22,22.22,0,0,1-3.49,8.34c-1.06,1.48-2.19,3.28-4.41,2.57a5.53,5.53,0,0,1-4.08-5A15.41,15.41,0,0,1,116.72,342Z"/><path class="cls-1" d="M245.95,328.46c5.23-14,13.85-25.19,19-39.08a14.37,14.37,0,0,1-.8,8.47c-.63,1.73-1.44,3.39-2,5.13-1.89,5.44-.71,10.22,3.19,14.39,1.35,1.44,2.81,2.89,1.85,5.12a6.36,6.36,0,0,1-5.67,4.23,27.55,27.55,0,0,1-5.19-.1A15.38,15.38,0,0,0,245.95,328.46Z"/><circle class="cls-3" cx="261.21" cy="261.21" r="241.21"/></g></g></svg>