<?xml version="1.0" encoding="utf-8"?>
<!-- Generator: Adobe Illustrator 21.0.0, SVG Export Plug-In . SVG Version: 6.00 Build 0)  -->
<svg version="1.1" id="Layer_1" xmlns="http://www.w3.org/2000/svg" xmlns:xlink="http://www.w3.org/1999/xlink" x="0px" y="0px"
	 viewBox="0 0 400 400" style="enable-background:new 0 0 400 400;" xml:space="preserve">
<style type="text/css">
	.st0{fill:#FFFFFF;}
	.st1{fill:#D32927;}
	.st2{fill:#E57F7D;}
	.st3{fill:#D32928;}
	.st4{fill:none;}
	.st5{fill:#A91E23;}
	.st6{fill:#ED2224;}
</style>
<path class="st0" d="M112.1,141.6c0.1,0,0.1,0.1,0.2,0.1c0-0.1,0-0.1,0-0.2C112.2,141.6,112.2,141.6,112.1,141.6z"/>
<path d="M112.1,141.6c0.1,0,0.1,0.1,0.2,0.1c0-0.1,0-0.1,0-0.2C112.2,141.6,112.2,141.6,112.1,141.6z"/>
<g>
	<path class="st1" d="M325.4,271c-2.7-1.8-5.2-3.7-7.8-5.5C319.6,265.3,325.1,269.2,325.4,271z"/>
	<path class="st1" d="M292.7,305.2c-4.5-0.3-5.2-10.9-8.8-15c3.3,0,7.5,3.7,10.7,2.7C295.2,296.9,290,301.7,292.7,305.2z"/>
	<path class="st1" d="M202.5,229.3c0.7-3.2,5.5-10,8.2-11.7c-2.8,4.7,4.2-2,5.8-2.7c7-2.7,14.2-0.7,22.5,5.2
		c-15.9,16.7,9,33.1,23.2,31.9c-4.7,3.3-4.7,8.7-6.3,13c-6.3-22.4-42.9-14-19.7,4.5c-22.2,0.3-41.1-24.4-30.9-43.1
		c-1-0.5-1.7,1.2-2.5,2.2C202.7,228.9,202.5,229.1,202.5,229.3z"/>
	<path class="st1" d="M225.4,305.5c-2.5-0.2-8.7-4.5-9.7-6.8C219.1,301,222.2,303.4,225.4,305.5z"/>
	<path class="st1" d="M320.4,326.7c-4,1.2-8,1.8-12.2,2.2C312.2,327.6,316.2,326.9,320.4,326.7z"/>
	<path class="st2" d="M317.7,265.6c-10.4-5-27.9-10.7-33.6,0.7c-2,4,0.2,10.2,7,13.7c9.3,4.8,26.5,0.3,38.2,10.4
		c9,7.7,9.2,14.9,10,24.5c-2.3-2.7-3.2-5.5-7-7.8c-0.2-1.7-5.5-5.5-7.2-5c-8.3-4.8-17-4.5-20.5,3c-5.2,11.2,15.2,18.4,23.5,17.5
		c-0.2,2.8-5.7,2.5-7.8,4.2c-4.2,0.2-8.2,1-12.2,2.2c-5.7-0.7-11-0.2-17-3.3c-2.7-1.8-5.2-3.7-7.8-5.5c-10.9-7.2-4.2-24-14.2-29.4
		c-12-6.5-17,18-5,23.7c-12,1.8-24.9-0.7-38.6-8.7c-3.2-2.3-6.5-4.5-9.7-6.8c-16.5-13.9-21-29.7-19.5-46.7
		c-4,24.7,28,57.1,57.4,57.8c-0.2-5.3-4.8-10-2.7-15.5c3.2-8.2,13-12.4,18.9-9c10,5.8,5.5,21.5,15.7,31.4c8,7.7,17.5,7.7,26.2,6.8
		c-29.2-14-0.2-42.4,18.7-23.7c-8.7-22.9-51.4-4.8-53.3-30.5c-1.3-18.7,32.6-17.7,47.1-4.8c-3.2-5.8-5.5-10.7-11.7-15
		c-13.5-9.5-35.9-6.2-46.4-14.2s-6.3-27.2,9.3-21.5c-10.5-17-31.1-17.7-43.1-11.9c10.4-5.7,21.4-8.2,33.7-2.5c3,2.2,6,4.3,9,6.3
		c8,6.2,10,13.5,13.9,20.4c-9.8-9.2-28.2-9.5-20.9,4.8c12.5,10.2,29.7,5.5,43.9,13.4c15.4,8.5,19.4,23,23.7,38.1
		c-3.2-1.5-5.5-8.2-10.5-11.4C325.1,269.2,319.6,265.3,317.7,265.6z"/>
	<path class="st3" d="M232.4,201.9c12-5.8,32.6-5.2,43.1,11.9c-15.7-5.7-19.9,13.5-9.3,21.5c10.5,8,32.9,4.5,46.4,14.2
		c6.2,4.5,8.5,9.2,11.7,15c-14.5-13-48.4-13.9-47.1,4.8c1.8,25.7,44.4,7.7,53.3,30.5c-18.7-18.7-47.7,9.7-18.7,23.7
		c-8.7,0.8-18.2,1-26.2-6.8c-10.2-9.8-5.7-25.5-15.7-31.4c-5.8-3.3-15.7,0.8-18.9,9c-2.2,5.3,2.5,10.2,2.7,15.5
		c-29.4-0.7-61.4-33.1-57.4-57.8c0.3-4.8,0.3-9.5,2.5-14.7c-7.5,23.2,11.2,58.9,45.7,66.1c2.3-3.5-0.8-8.3,1.2-12.7
		c6.2-13.7,19-15.4,28.4-7.2c10.4,9,7.5,34.4,24.5,35.6c-6.5-7.5-4.2-24.4,8.2-28.2c-13.4,1.7-38.9-9.8-34.9-26.4
		c3.8-15.5,22.2-16.2,34.2-12.9c-8.8-9.3-34.9-3.7-48.1-17.2c-6.2-6.3-8.5-23.4,4.8-27.7c-16.7-13-32.2-2-43.9,3.2
		C223.4,206.4,227.7,203,232.4,201.9z"/>
	<path class="st1" d="M219.1,209.9c11.7-5.2,27.2-16.2,43.9-3.2c-13.5,4.3-11,21.2-4.8,27.7c13.2,13.5,39.2,8,48.1,17.2
		c-12.2-3.3-30.4-2.7-34.2,12.9c-4,16.5,21.4,28,34.9,26.4c-12.4,3.8-14.7,20.7-8.2,28.2c-17-1.3-14.2-26.5-24.5-35.6
		c-9.3-8.2-22.2-6.5-28.4,7.2c-2,4.3,1.2,9.2-1.2,12.7c-34.6-7.2-53.3-42.9-45.7-66.1c-0.7-0.8,0.7-2,1.2-3c0.5-0.7,0.8-1.3,1.3-2
		c-6.7,23.2,10,49.6,39.7,60.9c-0.7-14.7,16-24.2,27.5-18.5c-3.7-7.5-2.5-21.5,8.7-24.9c-16.4-2.2-45.6-23.9-28.2-41.2
		c-13.2-5.2-24.9-1.5-35.7,8c-0.7-0.8,0.7-2,1.2-3C215.9,211.4,217.4,210.1,219.1,209.9z M294.5,293c-3.2,1-7.3-2.8-10.7-2.7
		c3.7,4.2,4.3,14.7,8.8,15C290,301.7,295.2,296.9,294.5,293z"/>
	<path class="st4" d="M214.6,213.6c-0.5,1-1.8,2.2-1.2,3c10.7-9.3,22.4-13,35.7-8c-17.4,17.4,12,39.1,28.2,41.2
		c-11.2,3.3-12.5,17.4-8.7,24.9c-11.5-5.7-28.2,3.8-27.5,18.5c-29.7-11.4-46.4-37.7-39.7-60.9c-0.5,0.7-0.8,1.3-1.3,2
		c-1.3-1.3,2-3.3,2.5-5c0.2-0.2,0.3-0.5,0.5-0.7c0.8-1,1.5-2.7,2.5-2.2c-10.2,18.7,8.7,43.4,30.9,43.1c-23.2-18.7,13.4-27,19.7-4.5
		c1.5-4.3,1.7-9.8,6.3-13c-14.2,1.2-39.1-15.2-23.2-31.9c-8.3-5.8-15.7-7.8-22.5-5.2c-1.7,0.7-8.7,7.5-5.8,2.7
		C212,216.6,212.9,212.7,214.6,213.6z"/>
	<path class="st1" d="M332.2,306.9c-2.3-1.7-4.8-3.3-7.2-5C326.7,301.5,332.1,305.2,332.2,306.9z"/>
</g>
<g>
	<g>
		<g>
			<path class="st4" d="M169.3,293.4c-36.9,8.2-73.8,16.5-110.7,24.9c-2,0.5-2.3,0-2.7-1.8c-16.3-73.7-32.8-147.3-49.4-221
				c-0.3-1.7-0.3-2.3,1.7-2.7C82.2,76.5,156,60,229.7,43.3c1.8-0.3,2.2,0,2.5,1.7c16.4,73.6,32.9,147.4,49.4,221
				c0.5,2-0.2,2.3-1.8,2.7C242.9,276.8,206,285.2,169.3,293.4z M183.7,224.7c-1.8-7.2-1.3-11,1.3-16.7c0.7-1.2,1.2-1.7,2.5-2
				c3.3-0.8,7-0.3,10.4-1.5c3-1.2,6-1.8,9-3c9.8-3.5,18.7-8.8,25.5-17c4.5-5.5,8.5-11.2,10.5-18c2.5-8.3,3.5-16.9,3-25.5
				c-0.5-6.8-1.2-13.9-4-20.2c-5.3-12.4-12.9-22.9-23.7-31.2c-6.5-5-13.5-9-21.4-11.7c-13.7-4.5-27.7-6-42.2-2.8
				c-11.9,2.8-23.7,5.5-33.7,13c-5,3.7-9.5,8-13.5,12.7c-5,6-8.7,12.7-11.5,20c-0.7,1.8-1.3,1.7-2.8,1c-2.7-1.2-5.5-2.2-8.3-2.8
				c-13-2.7-25.4-1.7-36.6,6.5C42,130,37.7,136,35.3,143.4c-2.5,8.2-2.8,16.4-2,24.9c1.5,15.4,6.3,29.5,16,41.6
				c3.7,4.5,7.2,9,11.7,12.7c1.3,1.2,1.7,2.2,1.3,3.8c-0.7,3.2-0.7,6.2-0.2,9.3c2.3,15,16.4,19.9,28.9,16.2
				c4.3-1.3,7.7-4.2,10.7-7.3c1.3-1.5,2.2-2,3.5,0.5c7.3,13.9,17.9,24.9,30.5,33.7c6.3,4.3,13.4,5.7,20.9,3.5
				c7.2-2.2,13.9-5.3,20.5-8.3c10.5-4.3,14.9-13.9,12.9-24.2C188.7,241.1,185.2,232.8,183.7,224.7z"/>
			<path class="st2" d="M183.7,224.7c1.5,8,5,16.2,6.8,24.9c2,10.2-2.3,19.7-12.9,24.2c-6.8,2.8-13.5,6.2-20.5,8.3
				c-7.5,2.2-14.5,1-20.9-3.5c-12.9-8.8-23.4-19.9-30.5-33.7c-1.3-2.3-2.2-1.8-3.5-0.5c-3,3.3-6.3,6-10.7,7.3
				c-12.5,3.7-26.5-1.2-28.9-16.2c-0.5-3.2-0.5-6.3,0.2-9.3c0.3-1.7-0.2-2.8-1.3-3.8c-4.5-3.7-8.2-8.2-11.7-12.7
				c-9.8-12-14.5-26.2-16-41.6c-0.8-8.5-0.5-16.7,2-24.9c2.3-7.3,6.7-13.2,12.9-17.9c11.2-8.2,23.5-9.2,36.6-6.5
				c3,0.5,5.7,1.8,8.3,2.8c1.3,0.5,2.2,0.7,2.8-1c2.8-7.2,6.5-14,11.5-20c4-4.7,8.5-8.8,13.5-12.7c10-7.5,21.9-10.4,33.7-13
				c14.4-3.3,28.4-1.8,42.2,2.8c7.8,2.5,14.9,6.7,21.4,11.7c10.9,8.3,18.2,18.9,23.7,31.2c2.8,6.3,3.5,13.4,4,20.2
				c0.5,8.7-0.5,17.4-3,25.5c-2,6.8-6,12.5-10.5,18c-6.8,8.2-15.5,13.5-25.5,17c-3,1.2-6,1.8-9,3c-3.3,1.2-7,0.7-10.4,1.5
				c-1.2,0.3-1.8,0.7-2.5,2C182.2,213.7,181.8,217.7,183.7,224.7z M235.8,131.1c-0.8-2.5-1-4.7-1.8-6.7c-2.2-5.5-5.3-10.4-8.2-15.5
				c-4.5-8.8-12.4-13.9-20.9-18.2c-3-1.5-6.3-2.2-9.5-3.7c-3-1.7-6.2-2.7-9.3-3.5c-9.5-2.3-19.4-1.3-28.9,0
				c-12.7,1.8-24.4,7-34.6,15c-10.7,8.5-17.9,19.4-21.2,32.6c-0.3,1.7,0.5,3.8-1.2,4.5c-1.5,0.7-3-1.7-4.7-2c-0.3,0-0.7-0.5-1-0.7
				c-2-1.2-3.5-3-5.8-3.7c-5.5-1.7-10.9-3.3-16.7-4c-4-0.3-8.2-0.3-11.7,1.8c-3.5,2-6.8,4.8-10,7.7c-5.3,4.8-5.3,11.9-8.7,17.2
				c-0.2,0.3,0,0.8,0,1.3c0.3,7,0.7,13.9,1.8,20.7c0.8,5.3,2.2,10.5,3.7,15.5c0.8,3,2.3,5.7,3.8,8.3c2.2,3.5,4.7,6.7,7.2,10
				c3.3,4.5,7.5,7.7,12.4,10.2c2,1,2.5,1.8,2,4c-0.7,2.5-0.8,5.2-1.5,7.7c-2,7,3.7,15,8.8,16.4c3.7,0.8,6.8,0.5,10-1.8
				c4.7-3.7,8.3-7.8,11-13c0.7-1.2,1.3-1.5,2.5-0.8c5,3.5,9.2,7.2,11.5,13.2c2.2,5.2,5.2,10,8.8,14.2c1.8,2,4.2,3.5,5.7,5.7
				c3.5,4.8,8.2,7.5,13.7,9.5c4.2,1.7,8,2.5,12.5,1.2c2.5-0.8,5.2-1.7,7.7-2.7c5.2-1.8,10.2-4.2,14.2-7.8c2-1.8,4.2-4.2,3.8-7.2
				c-0.5-4.5-1-9-2.3-13.7c-2.3-8.2-4-16.7-5.5-24.9c-0.3-1.8-1.2-3.8-0.5-5.8c1.2-3.7,3.2-7,4.3-10.5c0.3-1.2,1-2.5,2.7-2.5
				s3.5-0.2,5.2-0.3c3.8-0.2,7.7-0.5,11.2-1.8c5.7-2,11-4.2,16.4-6.8c4.5-2.3,8.3-5.5,11.5-9.5c1.3-1.7,2.5-3.5,3.8-5.2
				c5.7-6.2,7.2-14.2,8.7-22.2C238.8,145.5,237.1,138.1,235.8,131.1z"/>
			<path class="st3" d="M235.8,131.1c1.2,7,2.8,14.4,1.3,21.7c-1.5,7.8-3,15.9-8.7,22.2c-1.5,1.7-2.5,3.7-3.8,5.2
				c-3.2,4-7,7-11.5,9.5c-5.3,2.8-10.9,4.8-16.4,6.8c-3.7,1.2-7.3,1.5-11.2,1.8c-1.7,0-3.5,0.2-5.2,0.3c-1.7,0-2.3,1.3-2.7,2.5
				c-1.2,3.7-3.2,7-4.3,10.5c-0.7,2,0.2,4,0.5,5.8c1.7,8.3,3.3,16.7,5.5,24.9c1.2,4.5,1.7,9,2.3,13.7c0.3,3-1.7,5.2-3.8,7.2
				c-4.2,3.7-9,5.8-14.2,7.8c-2.5,1-5,1.8-7.7,2.7c-4.3,1.3-8.3,0.5-12.5-1.2c-5.3-2.2-10.2-4.7-13.7-9.5c-1.5-2.2-3.8-3.7-5.7-5.7
				c-3.8-4.2-6.8-9-8.8-14.2c-2.3-6-6.7-9.7-11.5-13.2c-1.3-0.8-1.8-0.3-2.5,0.8c-2.7,5.2-6.3,9.3-11,13c-3.2,2.5-6.3,2.7-10,1.8
				c-5.2-1.2-10.9-9.2-8.8-16.4c0.7-2.5,0.8-5.2,1.5-7.7c0.3-2,0-2.8-2-4c-4.8-2.5-9-5.7-12.4-10.2c-2.3-3.3-5-6.5-7.2-10
				c-1.5-2.5-3-5.3-3.8-8.3c-1.5-5-2.8-10.4-3.7-15.5c-1.2-6.8-1.5-13.9-1.8-20.7c0-0.5-0.2-1,0-1.3c3.3-5.5,3.3-12.4,8.7-17.2
				c3.2-2.8,6.5-5.5,10-7.7c3.5-2,7.7-2.2,11.7-1.8c5.7,0.5,11.2,2.3,16.7,4c2.3,0.7,4,2.5,5.8,3.7c0.3,0.2,0.7,0.7,1,0.7
				c1.7,0.3,3.2,2.5,4.7,2c1.5-0.7,0.7-3,1.2-4.5c3.5-13.2,10.5-23.9,21.2-32.6c10.4-8.2,21.7-13.2,34.6-15c9.5-1.3,19.4-2.2,28.9,0
				c3.2,0.8,6.3,1.8,9.3,3.5s6.3,2.2,9.5,3.7c8.5,4.5,16.2,9.5,20.9,18.2c2.7,5.2,6,10,8.2,15.5
				C234.8,126.6,235.1,128.8,235.8,131.1z M92.2,184.8L92.2,184.8c0.2,0.7,0.3,1.2-0.5,1.7c-1,0.7-2,1.5-3,2.3
				c-0.5,0.5-0.7,0.8,0.3,0.8c-1.8,1.7-1.8,3.5-1,5.8c1.5,3.5,3.2,6.8,5,10.2c3.5,6.2,6.8,12.7,11.7,18c1,1,2,2,3.3,1.3s0.5-2,0.3-3
				c-0.2-3.5-1.7-6.8-1.3-10.4c0-0.7-0.3-1.5,0.7-1.7s1.3,0.5,1.5,1.2c0.5,1.2,0.8,2.5,1.3,3.7c3.5,13,7.7,25.9,16.5,36.6
				c-0.3,1.5,0.2,2.7,1.3,3.7c3.2,3,6.2,6,9.8,8.3c2.3,1.5,4.2,3.5,7.3,3.7c2.7,0,4.7-0.8,4.3-2.8c0-0.5,0-1,0.7-1.2
				c0-0.2,0.2-0.5,0.3-0.8c0-1.7,1-3.2,1.5-4.7c0.8-2.5,3.3-4.2,5.3-3.5c2.3,0.5,4.8,4,4.3,6.2c-0.2,1.2-0.5,2.3-2.2,1.5
				c-0.7-0.3-1.7-1-2.3-0.2c-0.7,0.7-0.2,1.8,0.2,2.5c0.5,1,1.5,0.8,2.3,0.5c4.7-1,9.3-2.3,13.7-4.5c1.7-1,2.7-2.3,2.7-4.2
				c-0.2-6-1.2-11.9-4.2-17.2c-1-1.7-2.2-2.2-4.2-1.8c-3.7,1-6.5,3.3-9.2,5.8c-1.5,1.5-3.2,1.8-5.3,2c-3.3,0.2-5.8-1.7-7.5-4
				c-7.3-9-15.5-17-21.7-26.7c-1.5-2.3-3.7-4.2-4.2-7.2c-0.2-0.8-0.5-1.8,0.5-2.3c1.2-0.5,1.7,0.3,2,1c1.2,1.7,2.7,3,4.3,4.2
				c5,3.2,6.5,2.7,8.7-1.3c2.7-4.5,4.5-9.7,5.8-14.9c1.3-4.5,1.7-9.2,1.8-13.9c0-2-0.5-3.5-3-3.2c-4.8,0.7-9.5,0.2-14.4-0.3
				c-2.2-0.2-4.7-0.5-6.3-2.5c-0.5-0.5-1-1-0.7-1.7c0.3-0.8,1.2-0.3,1.7-0.3c6.7,0.8,12.9-1,19-3.2c5-1.8,9.7-4.3,14.2-8.2
				c-1.2,0.3-1.8,0.7-2.7,0.8c-9.8,3.8-19.9,6.2-30.5,4.2c-0.7-0.2-1.5,0.2-1.5-1c0-1,0.7-1.2,1.3-1.3c2.7-0.7,5.2-1.3,8-1.5
				c5-1,9.8-2.2,14.7-4c2.5-1,4.3-3,6.7-4.2c1-0.5,1.8-1.8,1.8-3.2c-0.3-3,0.2-6,0.2-9.2c0.2-6.5,2.5-11.9,7.8-15.9
				c4.3-3.2,9.3-4.2,14-6c1.2-0.5,2.7,0.2,3.5-0.5c3-2.2,6.2,0,8.5,0.7c3,1,6.2,2.2,8.8,4c0.8,0.7,1.2,0,1.7-0.3l0,0
				c0.7,2.2,2.5,2.8,4.3,3.3c3,1,3.2,4.2,4.5,6.3c5.7,9.5,5.8,19.2,0.8,29s-13.2,15.2-23.5,18.2c-6.8,1.8-14,2.8-21.2,4.5
				c-0.8,0.2-2.3,0-2.3,1.2s1.3,1.3,2.3,1.7c3.3,0.7,6.8,1.3,10.4,1c2.3-0.3,4.5-1,6.8-0.5c-1.3,0.7-3-0.3-4.3,1.2
				c2.5,0.5,4.5,0.5,6.7,0.2c8-1.5,15.9-3.2,23-7.3c2.2-1.3,4.7-1.5,6.7-3c4.3-3.2,8-7,11.5-11c2.2-2.5,3-5.8,4.7-8.7
				c2.7-4.7,3.7-9.8,3.5-15c-0.2-7.8-2.7-15.2-6.3-22.2c-3-5.7-6.2-11.2-10.9-15.9c-2-1.8-3.5-4.2-5.5-5.7c-2.2-1.7-4.7-3.3-7.3-4.7
				c-3.7-1.7-7.2-3.3-11-4.8c-4.2-1.7-8.7-1.3-13-2.3c-2.5-0.7-5.3-0.7-7.5-0.2c-10.4,2.5-21,3.3-30.9,7.8c-2.5,1.2-4.7,2.7-6.8,4
				c-0.5,0.2-1,1,0.2,1.3c-2.2,2-4.3,3.8-6.5,6c-9.3,9.3-13.5,20.9-14.9,33.7c-1.2,10,0,20,1.5,30c0.3,2.2,0.5,4.2,1.5,6
				c0.8,1.5,0.5,2.7-0.5,3.8c-4,5.2-9,8.8-14.7,11.4c-2,0.8-4.2,1.7-6.7,1c4-2.7,7.7-6,11-9.3c2-2,3.8-4.2,2.3-7.5
				c-0.7-1.5-0.8-3.3-1-4.8c-1-7.2-2.2-14.4-3.3-21.5c-0.2-1-0.5-1.7-1.2-2.5c-4.3-5.5-10.2-8.5-16.5-10.5c-4.3-1.3-9-2.2-13.9-2.2
				c-5.3,0-9.8,1.8-14,4.8c-0.5,0.3-1.2,0.8-0.8,1.5c0.3,0.7,1,0.3,1.7,0.3c1.8-0.2,3.5-1.5,5.5-0.7c-1.8,0.3-3.3,0.8-5.2,1
				c-3,0.3-4.3,2.2-5.3,4.7c-1.7,4.5-2.3,9-2.2,13.7c0.5,14,4.7,26.9,12.5,38.4c2,2.8,3.8,6,7.2,7.8c0.8,0.5,1.7,1.3,2.2-0.2
				c1.3,0,2.2-0.8,2.5-2c0.7-3.2,0.7-6.3-1-9.2c-2.7-4.8-6.7-9-7.5-15c0-0.2-0.3-0.5-0.3-0.7c-0.8-3.5-2.5-6.7-2.5-10.2
				c0-2.3,1.3-3,3.2-1.5c1.2,1,2.3,1.8,3.7,2.3c0.5,0.7,1.2,1.2,1.8,1.8c3.8,3.8,7.2,7.8,10.2,12.2c1,4.3,2.8,6,5.3,4
				C87.7,186.5,90,186,92.2,184.8z M76,228.8c-0.3,0-1-1-0.8,0.3c0.3,1.8,0.8,3.7,1.2,5.3c0.7,2.7,3.8,4.7,6.3,4.2
				c3.3-0.7,6.3-4.5,6-7.2c-0.7-3.7-0.8-7.5-1.5-11.4c-0.7-3.7-1-7.5-2.8-11c-1.8-1.2-2,0.8-2.3,1.3C78.3,216.2,76.8,222.4,76,228.8
				z M177.5,130.6c-2.3,0.5-4.5,1.5-6.3,3.2c-0.8,0.8-1,1.5,0,2.3c3.7,2.8,7.3,5.7,12.4,5.7c3.3,0,6.7,0.2,10,0.3
				c2.3,0.2,2.7-0.8,1.8-2.8C193.2,133.1,184.3,128.9,177.5,130.6z M149.3,186c-0.8,9-5.2,17.2-5.8,26.5c1-4,4-4,7.2-4.3
				c1.8-0.2,3.5-1.2,4.2-3.2s-1.2-2.7-2.2-3.5c-2.3-1.8-3.2-3.8-2.8-7C150.3,191.7,150.8,188.7,149.3,186z M151.3,261.6
				c0,0.2-0.2,0.3-0.2,0.5s0.2,0.3,0.3,0.3c0-0.2,0.2-0.3,0.2-0.5C151.5,261.8,151.5,261.6,151.3,261.6z"/>
			<path class="st4" d="M128.4,162c-2.7,0.3-5.3,0.8-8,1.5c-0.7,0.2-1.3,0.3-1.3,1.3s0.8,0.8,1.5,1c10.7,1.8,20.7-0.3,30.5-4.2
				c0.7-0.3,1.3-0.5,2.7-0.8c-4.3,4-9,6.3-14.2,8.2c-6,2.2-12.4,4-19,3.2c-0.5-0.2-1.3-0.5-1.7,0.3c-0.3,0.8,0.3,1.2,0.7,1.7
				c1.7,1.8,4,2.2,6.3,2.5c4.8,0.3,9.7,1,14.4,0.3c2.5-0.3,3.2,1.2,3,3.2c-0.2,4.7-0.5,9.3-1.8,13.9c-1.5,5.2-3.2,10.2-5.8,14.9
				c-2.3,4-3.8,4.5-8.7,1.3c-1.7-1.2-3.2-2.5-4.3-4.2c-0.5-0.7-1.2-1.7-2-1c-1.2,0.5-0.7,1.5-0.5,2.3c0.5,2.8,2.8,4.8,4.2,7.2
				c6.2,9.8,14.5,17.9,21.7,26.7c1.8,2.3,4.3,4.2,7.5,4c2,0,3.7-0.7,5.3-2c2.7-2.5,5.5-4.8,9.2-5.8c2-0.5,3.2,0,4.2,1.8
				c3,5.3,4,11.2,4.2,17.2c0,1.8-0.8,3.2-2.7,4.2c-4.2,2.2-9,3.5-13.7,4.5c-1,0.2-1.8,0.3-2.3-0.5c-0.3-0.8-0.8-1.8-0.2-2.5
				c0.7-0.8,1.7-0.2,2.3,0.2c1.7,0.8,2-0.5,2.2-1.5c0.3-2.2-2.2-5.5-4.3-6.2c-2-0.5-4.5,1-5.3,3.5c-0.5,1.5-1.5,3-1.5,4.7
				c-0.3,0.2-0.5,0.5-0.3,0.8c-0.7,0.2-0.7,0.7-0.7,1.2c-2.3,1.8-4.8,1.8-8,0c-5.7-3.3-10.4-8-14.9-12.9
				c-8.8-10.7-13-23.4-16.5-36.6c-0.3-1.2-0.8-2.5-1.3-3.7c-0.2-0.7-0.7-1.3-1.5-1.2c-1,0.2-0.7,1-0.7,1.7
				c-0.3,3.5,1.2,6.8,1.3,10.4c0,1,1,2.3-0.3,3s-2.5-0.3-3.3-1.3c-4.8-5.3-8.2-11.7-11.7-18c-1.8-3.3-3.5-6.7-5-10.2
				c-1-2.3-0.8-4.2,1-5.8c2.8-1.7,5-4,7.2-6.3c1-1.2,1.2-2.2,0.2-3.3c-2.5,2.3-5.5,4-8.3,5.7c-3.8,2.2-4,2.2-7-1.2
				c-0.2-0.2-0.3-0.3-0.7-0.3c-3.2-4.3-6.3-8.3-10.2-12.2c-0.5-0.7-1.2-1.2-1.8-1.8c-1-1.7-2.5-2.7-4-3.7c-2.5-1.7-4.8-0.8-5.5,2.3
				c-0.5,2.7-0.7,5.5,0,8.3c2,9.2,6,17.7,9.7,26.2c0,0.5-0.2,0.8,0.5,1c0.3,0.8,0.5,1.7,1.2,2.2c-0.7,1.5-1.5,0.7-2.2,0.2
				c-3.3-1.7-5.2-4.8-7.2-7.8c-7.8-11.5-12-24.4-12.5-38.4c-0.2-4.7,0.5-9.2,2.2-13.7c1-2.5,2.3-4.3,5.3-4.7c1.7-0.2,3.3-0.7,5.2-1
				c9,1.5,16.2,6.7,22,13c6.3,7,12.7,14.2,17.5,22.5c1.3,2.3,2.2,4.8,1.5,7.5c-3.5,3.3-7,6.5-11,9.3c2.5,0.7,4.7,0,6.7-1
				c5.8-2.7,10.9-6.3,14.7-11.4c1-1.2,1.3-2.3,0.5-3.8c-1-1.8-1.2-4-1.5-6c-1.5-9.8-2.7-19.9-1.5-30c1.5-12.7,5.5-24.4,14.9-33.7
				c2.2-2.2,4.3-4,6.5-6c2-1.2,4.2-2.5,6.2-3.5c8.8-4.5,18.4-6.8,28-8c12.7-1.5,24.4,1.5,35.4,7.3c5.5,2.8,8.7,7.7,12.4,12.5
				c7.3,9.8,11.2,21.2,11.7,33.4c0.5,11.2-3.2,20.9-11.4,28.5c-7.2,6.8-15.9,11.4-25.7,13.7c-3,0.7-6,1-8.8,2.3
				c-2.3-0.5-4.7,0.2-6.8,0.5c-3.5,0.5-7-0.2-10.4-1c-1-0.2-2.3-0.5-2.3-1.7s1.5-1,2.3-1.2c7-1.7,14-2.7,21.2-4.5
				c10.4-2.8,18.5-8.2,23.5-18.2c5-9.8,4.8-19.4-0.8-29c-1.3-2.2-1.7-5.2-4.5-6.3c-1.2-1.7-2.5-2.7-4.3-3.3l0,0
				c-3.2-3.3-7.2-5.2-11.4-6.7c-14.7-4.7-28.4-3-39.9,8.2c-8.2,8.2-11.4,18.5-11.9,29.7C132.9,158.6,132.8,161.5,128.4,162z"/>
			<path class="st2" d="M128.4,162c4.5-0.5,4.8-3.3,4.8-7c0.7-11.2,3.7-21.7,11.9-29.7c11.4-11.4,25-13,39.9-8.2
				c4.2,1.3,8.3,3.2,11.4,6.7c-0.5,0.5-0.8,1-1.7,0.3c-2.7-1.8-5.8-3.2-8.8-4c-2.5-0.8-5.5-2.8-8.5-0.7c-0.8,0.7-2.5,0-3.5,0.5
				c-4.8,1.8-9.8,2.8-14,6c-5.5,4.2-7.7,9.3-7.8,15.9c0,3-0.3,6.2-0.2,9.2c0,1.2-0.8,2.5-1.8,3.2c-2.3,1.3-4,3.2-6.7,4.2
				C138.1,160,133.3,161,128.4,162z"/>
			<path class="st2" d="M101.7,184.2c0.5-2.7-0.2-5.2-1.5-7.5c-4.8-8.3-11-15.5-17.5-22.5c-5.8-6.3-13-11.5-22-13
				c-2-0.7-3.7,0.5-5.5,0.7c-0.7,0-1.3,0.3-1.7-0.3c-0.3-0.8,0.3-1.2,0.8-1.5c4.2-3.2,8.7-4.8,14-4.8c4.8,0,9.3,0.8,13.9,2.2
				c6.3,2,12.2,5,16.5,10.5c0.7,0.8,0.8,1.7,1.2,2.5c1,7.2,2.2,14.4,3.3,21.5c0.3,1.7,0.5,3.3,1,4.8
				C105.5,180.2,103.9,182.2,101.7,184.2z"/>
			<path class="st5" d="M178.8,188c2.8-1.3,5.8-1.7,8.8-2.3c9.7-2.3,18.4-6.8,25.7-13.7c8.2-7.7,11.9-17.4,11.4-28.5
				c-0.5-12.4-4.3-23.5-11.7-33.4c-3.5-4.8-6.8-9.7-12.4-12.5c-11-6-22.7-9-35.4-7.3c-9.8,1.2-19.4,3.5-28,8c-2.2,1-4.2,2.3-6.2,3.5
				c-1-0.3-0.5-1-0.2-1.3c2.3-1.3,4.3-3,6.8-4c9.8-4.3,20.7-5.3,30.9-7.8c2.3-0.5,5-0.5,7.5,0.2c4.3,1,8.8,0.7,13,2.3
				c3.8,1.5,7.3,3.2,11,4.8c2.8,1.3,5.2,3,7.3,4.7c2,1.5,3.5,3.8,5.5,5.7c4.7,4.5,7.8,10,10.9,15.9c3.7,7,6.2,14.4,6.3,22.2
				c0.2,5.2-0.8,10.4-3.5,15c-1.7,2.8-2.5,6-4.7,8.7c-3.5,4.2-7.3,7.8-11.5,11c-2,1.5-4.5,1.7-6.7,3c-7,4.3-15,5.8-23,7.3
				c-2.2,0.3-4.3,0.3-6.7-0.2C175.7,187.5,177.5,188.5,178.8,188z"/>
			<path class="st4" d="M177.5,130.6c6.8-1.7,15.7,2.5,17.9,8.7c0.8,2,0.5,3-1.8,2.8c-3.3-0.2-6.7-0.2-10-0.3c-5,0-8.7-2.8-12.4-5.7
				c-1-0.7-0.8-1.5,0-2.3C173,132.1,175.2,131.1,177.5,130.6z"/>
			<path class="st2" d="M70.2,206.4c-0.7-0.7-0.8-1.5-1.2-2.2c-0.2-0.3,0-0.8-0.5-1c-3.7-8.5-7.7-17-9.7-26.2
				c-0.7-2.8-0.5-5.7,0-8.3c0.7-3,2.8-4,5.5-2.3c1.5,1,3,2,4,3.7c-1.5-0.5-2.5-1.3-3.7-2.3c-2-1.3-3.2-0.8-3.2,1.5
				c0,3.5,1.7,6.8,2.5,10.2c0,0.2,0.3,0.5,0.3,0.7c0.8,5.8,4.7,10,7.5,15c1.7,2.8,1.7,6,1,9.2C72.3,205.5,71.5,206.5,70.2,206.4z
				 M70.2,204.5c-0.2,0-0.2-0.3-0.3-0.3c0,0.2,0,0.2,0,0.2s0,0.3,0.2,0.3C70,204.9,70.2,204.7,70.2,204.5z"/>
			<path class="st5" d="M84.2,209.1c2,3.5,2,7.3,2.8,11c0.7,3.7,1,7.5,1.5,11.4c0.3,2.7-2.7,6.5-6,7.2c-2.5,0.5-5.8-1.7-6.3-4.2
				c-0.3-1.7-0.8-3.5-1.2-5.3c-0.2-1.3,0.5-0.2,0.8-0.3c0.2,1.5,0.3,3.2,0.7,4.7c0.3,1.5,1.7,2.3,2.8,2.7c1.5,0.3,2-1.2,2.5-2.2
				c1-2.7,0.8-5.3,0.8-8c-0.2-4.7,0.3-9.3,1-14c0.2-0.2,0.5-0.2,0.5-0.3c0-0.2-0.2-0.3-0.5-0.5C83.8,210.4,83.7,209.7,84.2,209.1z"
				/>
			<path class="st4" d="M84,211.7c-0.7,4.7-1.2,9.3-1,14c0,2.7,0.2,5.5-0.8,8c-0.3,1.2-1,2.5-2.5,2.2c-1.2-0.3-2.5-1.2-2.8-2.7
				s-0.5-3.2-0.7-4.7c0.8-6.5,2.3-12.7,5.8-18.2c0.3-0.7,0.7-2.7,2.3-1.3c-0.5,0.5-0.3,1.3-0.2,1.8C83.7,211.2,83.7,211.6,84,211.7z
				"/>
			<path class="st4" d="M149.3,186c1.7,2.8,1,5.7,0.5,8.5c-0.7,3.2,0.3,5.2,2.8,7c1,0.8,2.8,1.5,2.2,3.5c-0.7,2-2.2,3-4.2,3.2
				c-3,0.3-6,0.3-7.2,4.3C144.1,203.2,148.3,194.9,149.3,186z"/>
			<path class="st5" d="M126.9,251.5c4.3,5,9,9.5,14.9,12.9c3,1.8,5.5,1.8,8,0c0.3,2-1.7,3-4.3,2.8c-3.2-0.2-4.8-2.2-7.3-3.7
				c-3.7-2.3-6.8-5.3-9.8-8.3C127.1,254.1,126.6,253,126.9,251.5z"/>
			<path class="st5" d="M80.3,184c0.3,0.2,0.5,0.2,0.7,0.3c3,3.5,3.2,3.5,7,1.2c3-1.7,5.8-3.2,8.3-5.7c1,1.3,0.8,2.2-0.2,3.3
				c-2.2,2.5-4.5,4.7-7.2,6.3c-1-0.2-0.8-0.5-0.3-0.8c1-0.8,1.8-1.7,3-2.3c0.8-0.5,0.7-1,0.5-1.7c0-0.2,0-0.2,0-0.2
				c0,0.2,0,0.2,0,0.2c-2.2,1.2-4.5,1.8-6.7,3.3C83.2,190,81.2,188.4,80.3,184z"/>
			<path class="st5" d="M196.4,123.6c1.8,0.5,3.3,1.7,4.3,3.3C198.9,126.4,197,125.8,196.4,123.6z"/>
			<path class="st5" d="M151.3,261.6c0.2,0,0.3,0.3,0.3,0.3c0,0.2,0,0.2-0.2,0.5c-0.2,0-0.3-0.3-0.3-0.3
				C151.1,261.8,151.1,261.8,151.3,261.6z"/>
			<path class="st5" d="M150.3,263c0-0.3,0-0.7,0.3-0.8C150.4,262.6,150.4,262.8,150.3,263z"/>
			<path class="st6" d="M68.5,203c0.5,0.2,0.5,0.7,0.5,1C68.5,204,68.5,203.5,68.5,203z"/>
			<path class="st6" d="M70.2,204.5c0,0.2-0.2,0.3-0.2,0.3c0-0.2-0.2-0.3-0.2-0.3v-0.2C70,204.4,70,204.5,70.2,204.5z"/>
			<path class="st6" d="M84,211.7c-0.3-0.3-0.2-0.5,0-0.7c0.3,0,0.5,0.2,0.5,0.5C84.5,211.6,84.2,211.6,84,211.7z"/>
			<path class="st6" d="M92.2,184.8C92.2,184.7,92.2,184.7,92.2,184.8C92.2,184.7,92.2,184.7,92.2,184.8
				C92.4,184.7,92.2,184.8,92.2,184.8z"/>
		</g>
	</g>
</g>
<g>
	<title>empty bulb</title>
	<g id="Layer_2_1_">
		<g id="Layer_1-2_1_">
			<path class="st1" d="M13.4,143.1l27.1-51.3C83.7,41.6,136.9,32,197.4,51.6l42.5,26.7c13.9,20.2,23.7,37.7,32.9,60.3
				c7.7,19,13.2,46.3,25.7,62.4c11.1,14.6,29.8,23.7,43.5,36.3c5.1,4.8,8.3,12.7,13.2,17.1c11.9,10.9,28.6,12.9,38.6,26.5
				c11.1,15.2,4.1,37.5,4.1,53.2l-15.7,29.8c-13.6,6.9-25.8,20.4-40.3,18.8c-14-1.5-24.4-13.3-36.6-18.7c-6.4-2.7-15.2-2-21.6-4.9
				c-19.5-8.3-35.8-24-54.2-27.5c-16.7-3.1-34.5,6.4-53,8.6c-27.1,3.1-48.7,0.6-76.8-4.3L61.6,312C15.3,264.6-5.6,209.7,13.4,143.1z
				 M342.3,255.3c-12.3-20.2-42-29.8-55.4-48c-20.7-28.2-24.2-92.8-59.2-121c-70.3-56.9-157.9-40.5-197.6,52
				c-29.8,69.6-1.5,141,60,176.8c54.3,31.5,103.7-5,143.4,4.3c20.1,4.8,41.9,26,63.6,29C329.6,344.6,359.1,282.7,342.3,255.3
				L342.3,255.3z M361.1,269.3c7,31.3-19.8,78.6-47.3,89.4C346.9,363.8,383.8,298.9,361.1,269.3L361.1,269.3z M373.4,277
				c4.9,25.2-16.4,82.6-47.9,86.6C356.9,377.4,398,307.1,373.4,277L373.4,277z M382.2,287c13.9,30.2-16.2,79.7-44.8,84.3
				C370.6,383.6,408.4,305.8,382.2,287L382.2,287z"/>
		</g>
	</g>
</g>
</svg>
