<?xml version="1.0" encoding="utf-8"?>
<!-- Generator: Adobe Illustrator 21.0.0, SVG Export Plug-In . SVG Version: 6.00 Build 0)  -->
<svg version="1.1" xmlns="http://www.w3.org/2000/svg" xmlns:xlink="http://www.w3.org/1999/xlink" x="0px" y="0px"
	 viewBox="0 0 400 400" style="enable-background:new 0 0 400 400;" xml:space="preserve">
<style type="text/css">
	.st0{}
	.st1{}
	.st2{fill:rgba(246,201,201,0.5);stroke:rgba(246,201,201,0.5);stroke-width:0.25;stroke-miterlimit:10;}
	.st3{fill:none;stroke:rgba(246,201,201,0.5);stroke-width:0.25;stroke-miterlimit:10;}
	.st4{clip-path:url(#SVGID_2_);}
	.st5{clip-path:url(#SVGID_4_);fill-rule:evenodd;clip-rule:evenodd;fill:rgba(246,201,201,0.5);}
</style>
<g id="rocket">
<path class="st0" style="fill:rgba(246,201,201,0.5);" d="M134.5,197.9c0.1,0,0.1,0.1,0.2,0.1c0-0.1,0-0.1,0-0.2C134.6,197.9,134.6,197.9,134.5,197.9z"/>
<path d="M134.5,197.9c0.1,0,0.1,0.1,0.2,0.1c0-0.1,0-0.1,0-0.2C134.6,197.9,134.6,197.9,134.5,197.9z"/>
<g>
	<path class="st1" style="fill:rgba(246,201,201,0.5);stroke:rgba(246,201,201,0.5);stroke-width:0.25;stroke-miterlimit:10;" d="M343.9,306.3c-3-2-5.7-4.1-8.7-6.1C337.4,300,343.5,304.3,343.9,306.3z"/>
	<path class="st1" style="fill:rgba(246,201,201,0.5);stroke:rgba(246,201,201,0.5);stroke-width:0.25;stroke-miterlimit:10;" d="M307.6,344.3c-5-0.4-5.7-12-9.8-16.7c3.7,0,8.3,4.1,11.9,3C310.4,335,304.6,340.4,307.6,344.3z"/>
	<path class="st1" style="fill:rgba(246,201,201,0.5);stroke:rgba(246,201,201,0.5);stroke-width:0.25;stroke-miterlimit:10;" d="M207.6,260c0.7-3.5,6.1-11.1,9.1-13c-3.1,5.2,4.6-2.2,6.5-3c7.8-3,15.7-0.7,25,5.7
		c-17.6,18.5,10,36.7,25.7,35.4c-5.2,3.7-5.2,9.6-7,14.4c-7-24.8-47.6-15.6-21.9,5c-24.6,0.4-45.6-27-34.3-47.8
		c-1.1-0.6-1.9,1.3-2.8,2.4C207.8,259.7,207.6,259.8,207.6,260z"/>
	<path class="st1" style="fill:rgba(246,201,201,0.5);stroke:rgba(246,201,201,0.5);stroke-width:0.25;stroke-miterlimit:10;" d="M233,344.6c-2.8-0.2-9.6-5-10.7-7.6C225.9,339.6,229.5,342.2,233,344.6z"/>
	<path class="st1" style="fill:rgba(246,201,201,0.5);stroke:rgba(246,201,201,0.5);stroke-width:0.25;stroke-miterlimit:10;" d="M338.3,368.2c-4.4,1.3-8.9,2-13.5,2.4C329.3,369.1,333.7,368.4,338.3,368.2z"/>
	<path class="st2" style="fill:rgba(246,201,201,0.5);stroke:rgba(246,201,201,0.5);stroke-width:0.25;stroke-miterlimit:10;" d="M335.4,300.4c-11.5-5.6-30.9-11.9-37.2,0.7c-2.2,4.4,0.2,11.3,7.8,15.2c10.4,5.4,29.4,0.4,42.4,11.5
		c10,8.5,10.2,16.5,11.1,27.2c-2.6-3-3.5-6.1-7.8-8.7c-0.2-1.9-6.1-6.1-8-5.6c-9.3-5.4-18.9-5-22.8,3.3
		c-5.7,12.4,16.9,20.4,26.1,19.4c-0.2,3.1-6.3,2.8-8.7,4.6c-4.6,0.2-9.1,1.1-13.5,2.4c-6.3-0.7-12.2-0.2-18.9-3.7
		c-3-2-5.7-4.1-8.7-6.1c-12-8-4.6-26.7-15.7-32.6c-13.3-7.2-18.9,20-5.6,26.3c-13.3,2-27.6-0.7-42.8-9.6c-3.5-2.6-7.2-5-10.7-7.6
		c-18.3-15.4-23.3-33-21.7-51.8c-4.4,27.4,31.1,63.3,63.7,64.1c-0.2-5.9-5.4-11.1-3-17.2c3.5-9.1,14.4-13.7,20.9-10
		c11.1,6.5,6.1,23.9,17.4,34.8c8.9,8.5,19.4,8.5,29.1,7.6c-32.4-15.6-0.2-47,20.7-26.3c-9.6-25.4-57-5.4-59.1-33.9
		c-1.5-20.7,36.1-19.6,52.2-5.4c-3.5-6.5-6.1-11.9-13-16.7c-15-10.6-39.8-6.9-51.5-15.7c-11.7-8.9-7-30.2,10.4-23.9
		c-11.7-18.9-34.4-19.6-47.8-13.1c11.5-6.3,23.7-9.1,37.4-2.8c3.3,2.4,6.7,4.8,10,7c8.9,6.9,11.1,15,15.4,22.6
		c-10.9-10.2-31.3-10.6-23.1,5.4c13.9,11.3,33,6.1,48.7,14.8c17,9.4,21.5,25.6,26.3,42.2c-3.5-1.7-6.1-9.1-11.7-12.6
		C343.5,304.3,337.4,300,335.4,300.4z"/>
	<path class="st2" style="fill:rgba(246,201,201,0.5);stroke:rgba(246,201,201,0.5);stroke-width:0.25;stroke-miterlimit:10;" d="M240.7,229.7c13.3-6.5,36.1-5.7,47.8,13.1c-17.4-6.3-22,15-10.4,23.9c11.7,8.9,36.5,5,51.5,15.7
		c6.9,5,9.4,10.2,13,16.7c-16.1-14.4-53.7-15.4-52.2,5.4c2,28.5,49.3,8.5,59.1,33.9c-20.7-20.7-53,10.7-20.7,26.3
		c-9.6,0.9-20.2,1.1-29.1-7.6c-11.3-10.9-6.3-28.3-17.4-34.8c-6.5-3.7-17.4,0.9-20.9,10c-2.4,5.9,2.8,11.3,3,17.2
		c-32.6-0.7-68.1-36.7-63.7-64.1c0.4-5.4,0.4-10.6,2.8-16.3c-8.3,25.7,12.4,65.4,50.7,73.3c2.6-3.9-0.9-9.3,1.3-14.1
		c6.9-15.2,21.1-17,31.5-8c11.5,10,8.3,38.1,27.2,39.4c-7.2-8.3-4.6-27,9.1-31.3c-14.8,1.9-43.1-10.9-38.7-29.3
		c4.3-17.2,24.6-18,38-14.3c-9.8-10.4-38.7-4.1-53.3-19.1c-6.9-7-9.4-25.9,5.4-30.7c-18.5-14.4-35.7-2.2-48.7,3.5
		C230.7,234.7,235.6,231,240.7,229.7z"/>
	<path class="st1" style="fill:rgba(246,201,201,0.5);stroke:rgba(246,201,201,0.5);stroke-width:0.25;stroke-miterlimit:10;" d="M225.9,238.5c13-5.7,30.2-18,48.7-3.5c-15,4.8-12.2,23.5-5.4,30.7c14.6,15,43.5,8.9,53.3,19.1
		c-13.5-3.7-33.7-3-38,14.3c-4.4,18.3,23.7,31.1,38.7,29.3c-13.7,4.3-16.3,23-9.1,31.3c-18.9-1.5-15.7-29.4-27.2-39.4
		c-10.4-9.1-24.6-7.2-31.5,8c-2.2,4.8,1.3,10.2-1.3,14.1c-38.3-8-59.1-47.6-50.7-73.3c-0.7-0.9,0.7-2.2,1.3-3.3
		c0.6-0.7,0.9-1.5,1.5-2.2c-7.4,25.7,11.1,55,44.1,67.6c-0.7-16.3,17.8-26.8,30.6-20.6c-4.1-8.3-2.8-23.9,9.6-27.6
		c-18.1-2.4-50.6-26.5-31.3-45.7c-14.6-5.7-27.6-1.7-39.6,8.9c-0.7-0.9,0.7-2.2,1.3-3.3C222.4,240.2,224.1,238.7,225.9,238.5z
		 M309.6,330.8c-3.5,1.1-8.1-3.1-11.9-3c4.1,4.6,4.8,16.3,9.8,16.7C304.6,340.4,310.4,335,309.6,330.8z"/>
	<path class="st3" style="fill:none;stroke:rgba(246,201,201,0.5);stroke-width:0.25;stroke-miterlimit:10;" d="M220.9,242.6c-0.6,1.1-2,2.4-1.3,3.3c11.9-10.4,24.8-14.4,39.6-8.9c-19.3,19.3,13.3,43.3,31.3,45.7
		c-12.4,3.7-13.9,19.3-9.6,27.6c-12.8-6.3-31.3,4.3-30.6,20.6c-33-12.6-51.5-41.8-44.1-67.6c-0.6,0.7-0.9,1.5-1.5,2.2
		c-1.5-1.5,2.2-3.7,2.8-5.6c0.2-0.2,0.4-0.6,0.6-0.7c0.9-1.1,1.7-3,2.8-2.4c-11.3,20.7,9.6,48.1,34.3,47.8
		c-25.7-20.7,14.8-30,21.9-5c1.7-4.8,1.9-10.9,7-14.4c-15.7,1.3-43.3-16.9-25.7-35.4c-9.3-6.5-17.4-8.7-25-5.7
		c-1.9,0.7-9.6,8.3-6.5,3C218.2,246,219.1,241.7,220.9,242.6z"/>
	<path class="st1" style="fill:rgba(246,201,201,0.5);stroke:rgba(246,201,201,0.5);stroke-width:0.25;stroke-miterlimit:10;" d="M351.5,346.1c-2.6-1.9-5.4-3.7-8-5.6C345.4,340.2,351.3,344.3,351.5,346.1z"/>
</g>
<g>
	<g>
		<defs>
			<rect id="SVGID_1_" x="-11.2" y="12.3" width="333.7" height="333.7"/>
		</defs>
		<clipPath id="SVGID_2_">
			<use xlink:href="#SVGID_1_"  style="overflow:visible;"/>
		</clipPath>
		<g class="st4" style="clip-path:url(#SVGID_2_);">
			<defs>
				<rect id="SVGID_3_" x="-11.2" y="12.3" width="333.7" height="333.7"/>
			</defs>
			<clipPath id="SVGID_4_">
				<use xlink:href="#SVGID_3_"  style="overflow:visible;"/>
			</clipPath>
			<path class="st5" style="clip-path:url(#SVGID_4_);fill-rule:evenodd;clip-rule:evenodd;fill:rgba(246,201,201,0.5);" d="M191.3,246.8c-0.1,6.3,0.7,12.6,1.1,18.9c0.3,4.9,0.7,9.7-0.2,14.6c-1.9,10.8-8.4,17.6-19,20
				c-7.9,1.8-15.9,3.2-24,4.3c-11.9,1.7-21.3-2.3-29-11.3c-11.1-13-19.8-27.3-24.4-43.9c-0.8-2.7-1.5-3-3.8-1.4
				c-5.4,3.6-11.1,5.9-17.7,5.7c-11.6-0.4-21.6-7.1-24.5-17c-1.9-6.4-1.4-12.8,1.1-19c1.1-2.6,0.8-4.6-0.9-6.9
				c-8.7-12.7-15.2-26.4-17.2-41.8c-2.1-16.7-0.9-33.2,5.6-48.9c6.9-16.8,22.5-27.1,40.6-27.2c12.4,0,23.7,3.5,33.8,10.7
				c2.6,1.8,3,1.7,4.8-0.9c10-15,23.8-25.1,40.4-31.7c6.7-2.7,13.8-3.7,21-4.3c5.4-0.4,10.8-0.4,16.2-0.5c12.8-0.3,25,2.5,36.6,7.6
				c20,8.7,35.1,22.8,44.9,42.3c4.9,9.8,8.3,20.3,9,31.3c0.7,10.3-1.1,20.4-4.2,30.2c-2.6,8.3-5.9,16.3-11.5,23
				c-11.2,13.4-25.4,21.9-42.8,24.4c-4.7,0.7-9.5,1.1-14.3,1.6c-3,0.3-6-0.1-8.9-0.6c-3.8-0.7-6.7,0.1-8.8,3.7
				c-2.3,3.9-3.8,7.9-3.9,12.3C191.2,243.4,191.3,245.1,191.3,246.8 M173.6,193.9c0,0.5,0.3,0.5,0.6,0.6c9.2,4,18.9,6.2,28.9,6.6
				c11.7,0.5,22.8-2,33-7.8c16.8-9.5,26.2-23.5,25.8-43.2c-0.2-7.9-1.5-15.6-3.6-23.2c-4.1-15.2-13.6-25.8-27.7-32.5
				c-7.5-3.5-15.4-6.1-23.5-7.8c-3.8-0.8-7.7-1.6-11.5-1.5c-6.6,0.2-13.2,1-19.6,2.4c-6.1,1.3-12.3,2.5-17.9,5.4
				c-15.1,7.7-24.5,20.3-30.2,36c-3.3,9-4.9,18.4-5.8,27.9c-0.5,5.1-1.6,10.2-0.4,15.3c0.5,2.2-0.2,3.6-1.8,4.9
				c-6.2,5.2-13.5,8.3-21.4,9.6c-1.6,0.3-3.3,0.3-5-0.2c-0.5-0.1-1.1-0.2-1.2-0.7c-0.1-0.8,0.6-0.8,1.1-1c3.8-1.7,7.5-3.7,11.1-5.7
				c3.2-1.8,4-3.5,3.4-7.1c-0.2-1.2-0.5-2.4-0.9-3.6c-4-12.2-9.9-23.4-16.9-34.1c-4.4-6.8-10.2-12.3-17.8-15.5
				c-3-1.3-6.1-0.9-9.2-0.8c-2.2,0-3.6,1.6-4.8,3.3c-5.3,7.6-6.9,16.3-7.6,25.2c-1,14.4,1.5,28.1,7.3,41.2c1.2,2.7,2.5,5.3,4.9,7.2
				c0.4,0.3,0.8,1,1.4,0.6c0.6-0.4,0.3-1,0.2-1.5c-0.3-1.6-0.6-3.1-0.9-4.7c-1.9-10-4-19.9-4-30.1c0-3.7,0.7-7.2,2.3-10.5
				c1.6-3.2,4.3-3.7,6.9-1.2c1.3,1.3,2.5,2.6,3.4,4.2c4.1,7.6,8.1,15.2,12.3,22.7c1.4,2.6,2.2,2.8,5.1,2c3.8-1.1,7.6-2.2,11.2-4
				c0.5-0.3,1.1-0.8,1.7-0.1c0.4,0.5,0.4,1.2,0.2,1.8c-0.2,0.8-0.8,1.4-1.5,1.9c-2.6,1.9-5.3,3.5-8.3,4.8c-3.6,1.5-4.9,3.4-4,7.2
				c2.6,12,5.6,24,11.2,35c0.5,0.9,1,1.8,1.7,2.6c0.5,0.7,1.3,0.9,2.1,0.6c0.8-0.3,0.9-0.9,1-1.7c0.2-2.6,0.6-5.1,0.4-7.7
				c-0.1-2,0.2-4,0.7-6c0.2-0.9,0.5-1.8,1.6-1.8c1.1,0.1,1.4,1,1.6,1.9c0.5,3,0.6,5.9,0.8,8.9c0.4,8.7,1.3,17.3,3.4,25.8
				c3.3,13.2,9.7,24.6,19.4,34.2c4.6,4.6,7.9,4.1,11.1-1.4c0.7-1.3,1.7-2.5,2.6-3.7c2-2.6,5-3.6,7.3-2.4c2.4,1.3,4.3,5.6,3.6,8.1
				c-0.7,2.4-1.7,2.8-3.9,1.5c-0.8-0.5-1.7-1.1-2.2,0.2c-0.4,1-0.2,2.1,1,2.6c0.6,0.2,1.2,0.2,1.8,0.2c2.2,0,4.4-0.1,6.7-0.2
				c3.1-0.2,6.2-0.6,9.2-1.4c2.1-0.6,3.6-1.7,4.1-4c1.4-6.6,1.7-13.2-0.1-19.8c-0.9-3.1-2.5-4.2-5.7-3.6c-3.5,0.5-6.6,2-9.7,3.7
				c-5.6,3.2-11.8,1.6-14.8-4.1c-7.3-13.7-15.2-27.2-20.7-41.8c-0.6-1.6-1.2-3.3-1.1-5.1c0-1.1,0.1-2.3,1.5-2.7
				c1.4-0.3,2,0.7,2.4,1.8c1.2,2.7,2.9,5,5.1,7.1c3.3,3.1,5.2,3.2,8.2-0.1c8-8.9,13.7-19.1,16.4-30.7c0.8-3.3,0-4.2-3.4-4.6
				c-6.4-0.8-12.5-2.8-18.4-5.1c-1.9-0.8-3.4-2.1-4.2-4.1c-0.6-1.5,0.2-2.4,1.7-2c1.2,0.3,2.4,0.7,3.6,1c7.7,1.8,15.3,1.1,22.9-0.3
				c4.4-0.8,8.7-2.1,12.6-4.3c-8,1.2-16,1.8-24.1,0.6c-4.6-0.7-9-1.9-13.2-3.7c-0.7-0.3-1.5-0.6-1.4-1.6c0.1-1,0.9-1.4,1.7-1.5
				c0.6-0.1,1.2-0.1,1.9-0.1c2.6-0.1,5.3,0.3,7.9,0.4c4.9,0.2,5.9-0.5,7.2-5.2c0.3-1.1,0.6-2.3,1-3.4c3.2-10,7.9-19,16.3-25.7
				c10.5-8.4,22.4-12.1,35.9-9.2c9.6,2.1,18.2,6.6,25.6,13c10.3,8.9,14.3,20.5,11.8,33.8c-2.9,15.6-12.7,25.5-27.8,30.3
				c-8,2.5-16.3,2.2-24.6,2C183.6,194.1,178.6,193.8,173.6,193.9 M207.7,136.2c-2.4-0.2-4.9,0.4-7.2,1.6c-1,0.6-1.7,1.3-0.8,2.5
				c3.4,4.3,7,8.3,12.7,9.6c3.5,0.8,7,1.8,10.5,2.7c2.9,0.7,3.6,0,3.2-2.8c-0.1-0.6-0.3-1.2-0.5-1.8
				C223.4,141.7,215.2,135.7,207.7,136.2 M66.1,227.3c0,0.3,0,0.7,0,1c0.2,1.6,1.1,2.7,2.6,3.2c1.4,0.5,2.2-0.7,2.8-1.7
				c1.1-1.6,1.8-3.4,2.2-5.3c0.8-3.7,1.5-7.5,2.7-11.1c1.1-3.3,2.2-6.6,3.2-9.9c0.2-0.5,0.6-1.1-0.1-1.5c-0.5-0.3-0.9,0.2-1.2,0.6
				c-2.6,2.8-5.1,5.8-6.9,9.1C68.9,216.6,66.1,221.5,66.1,227.3 M149,218.6c2.4-1.4,4.5-1.5,6.7-1.2c1.1,0.1,2.2,0.1,3.3,0.1
				c1.8-0.1,3-1.1,3.6-2.7c0.6-1.4-0.3-2.4-1.2-3.3c-2.5-2.7-3.3-5.7-2-9.2c0.4-1.1,0.9-2.2,1.3-3.3c0.6-1.6,1-3.1,0.5-5.4
				C157.9,202.5,152.4,209.7,149,218.6"/>
		</g>
	</g>
</g>
</g>
</svg>
