<svg id="rocket" xmlns:dc="http://purl.org/dc/elements/1.1/" xmlns:cc="http://creativecommons.org/ns#" xmlns:rdf="http://www.w3.org/1999/02/22-rdf-syntax-ns#" xmlns:svg="http://www.w3.org/2000/svg" xmlns="http://www.w3.org/2000/svg" version="1.1" viewBox="0 0 100 125" xml:space="preserve" x="0px" y="0px"><path d="m 50,5 c -2.016502,0 -3.61862,8.720987 -5.25,9.90625 -1.631363,1.185263 -10.408121,0.01962 -11.03125,1.9375 -0.623128,1.917772 7.158138,6.113461 7.78125,8.03125 0.623145,1.917789 -3.193896,9.908487 -1.5625,11.09375 1.63138,1.18523 8.045998,-4.90625 10.0625,-4.90625 2.016486,0 8.431104,6.09148 10.0625,4.90625 C 61.693829,34.783487 57.876889,26.792789 58.5,24.875 59.123129,22.957211 66.904379,18.761522 66.28125,16.84375 65.658122,14.925961 56.881363,16.091513 55.25,14.90625 53.618638,13.720987 52.016486,5 50,5 z m 0.1875,28.59375 c -1.737917,0.458657 -3.154916,1.638285 -4.625,2.6875 L 50,95 54.4375,36.28125 c -1.387088,-0.951722 -2.764232,-2.007323 -4.25,-2.6875 z" style="" fill="#FFFFFF" fill-opacity="1" stroke="none"/></svg>